<svg width="18" height="14" viewBox="0 0 18 14" fill="none" xmlns="http://www.w3.org/2000/svg">
<path d="M0 1C0 0.585786 0.335786 0.25 0.75 0.25H17.25C17.6642 0.25 18 0.585786 18 1C18 1.41421 17.6642 1.75 17.25 1.75H0.75C0.335787 1.75 0 1.41421 0 1Z" fill="white"/>
<path d="M0 7C0 6.58579 0.335786 6.25 0.75 6.25H17.25C17.6642 6.25 18 6.58579 18 7C18 7.41421 17.6642 7.75 17.25 7.75H0.75C0.335787 7.75 0 7.41421 0 7Z" fill="white"/>
<path d="M0 13C0 12.5858 0.335786 12.25 0.75 12.25H17.25C17.6642 12.25 18 12.5858 18 13C18 13.4142 17.6642 13.75 17.25 13.75H0.75C0.335787 13.75 0 13.4142 0 13Z" fill="white"/>
</svg>
